<mxfile host="app.diagrams.net" modified="2023-08-11T15:26:36.508Z" agent="Mozilla/5.0 (X11; Linux x86_64; rv:109.0) Gecko/20100101 Firefox/116.0" etag="66mwHSLBqBs3QEdkRqw9" version="21.6.5" type="device">
  <diagram name="Page-1" id="s8J1TcxqFYQ6ddYi1LZd">
    <mxGraphModel dx="1129" dy="1176" grid="1" gridSize="10" guides="1" tooltips="1" connect="1" arrows="1" fold="1" page="1" pageScale="1" pageWidth="850" pageHeight="1100" math="0" shadow="0">
      <root>
        <mxCell id="0" />
        <mxCell id="1" parent="0" />
        <mxCell id="OrEuCBoS2tfW3R4WaEpJ-82" value="LoRa" style="edgeStyle=orthogonalEdgeStyle;rounded=0;orthogonalLoop=1;jettySize=auto;html=1;exitX=1;exitY=0.5;exitDx=0;exitDy=0;entryX=0;entryY=0.5;entryDx=0;entryDy=0;startArrow=classic;startFill=1;" parent="1" source="OrEuCBoS2tfW3R4WaEpJ-2" target="OrEuCBoS2tfW3R4WaEpJ-8" edge="1">
          <mxGeometry relative="1" as="geometry" />
        </mxCell>
        <mxCell id="OrEuCBoS2tfW3R4WaEpJ-2" value="&lt;div&gt;Repeater&lt;/div&gt;" style="rounded=1;whiteSpace=wrap;html=1;labelPosition=center;verticalLabelPosition=top;align=center;verticalAlign=bottom;horizontal=1;fontStyle=1;labelBorderColor=none;labelBackgroundColor=none;" parent="1" vertex="1">
          <mxGeometry x="200" y="205" width="120" height="140" as="geometry" />
        </mxCell>
        <mxCell id="OrEuCBoS2tfW3R4WaEpJ-5" value="LoRa PHY layer" style="rounded=1;whiteSpace=wrap;html=1;" parent="1" vertex="1">
          <mxGeometry x="210" y="285" width="100" height="50" as="geometry" />
        </mxCell>
        <mxCell id="OrEuCBoS2tfW3R4WaEpJ-83" value="&lt;div&gt;Internet&lt;/div&gt;" style="edgeStyle=orthogonalEdgeStyle;rounded=0;orthogonalLoop=1;jettySize=auto;html=1;exitX=1;exitY=0.5;exitDx=0;exitDy=0;entryX=0;entryY=0.5;entryDx=0;entryDy=0;startArrow=classic;startFill=1;" parent="1" source="OrEuCBoS2tfW3R4WaEpJ-8" target="OrEuCBoS2tfW3R4WaEpJ-72" edge="1">
          <mxGeometry relative="1" as="geometry" />
        </mxCell>
        <mxCell id="OrEuCBoS2tfW3R4WaEpJ-8" value="&lt;div&gt;Gateway&lt;/div&gt;" style="rounded=1;whiteSpace=wrap;html=1;fontStyle=1;labelPosition=center;verticalLabelPosition=top;align=center;verticalAlign=bottom;textDirection=ltr;" parent="1" vertex="1">
          <mxGeometry x="370" y="170" width="270" height="210" as="geometry" />
        </mxCell>
        <mxCell id="OrEuCBoS2tfW3R4WaEpJ-12" value="GSM/LTE" style="rounded=1;whiteSpace=wrap;html=1;" parent="1" vertex="1">
          <mxGeometry x="530" y="320" width="100" height="50" as="geometry" />
        </mxCell>
        <mxCell id="OrEuCBoS2tfW3R4WaEpJ-17" value="MCU" style="rounded=1;whiteSpace=wrap;html=1;" parent="1" vertex="1">
          <mxGeometry x="390" y="180" width="230" height="50" as="geometry" />
        </mxCell>
        <mxCell id="OrEuCBoS2tfW3R4WaEpJ-35" style="edgeStyle=orthogonalEdgeStyle;rounded=0;orthogonalLoop=1;jettySize=auto;html=1;exitX=0.5;exitY=1;exitDx=0;exitDy=0;entryX=0.5;entryY=0;entryDx=0;entryDy=0;startArrow=classic;startFill=1;" parent="1" source="OrEuCBoS2tfW3R4WaEpJ-26" target="OrEuCBoS2tfW3R4WaEpJ-12" edge="1">
          <mxGeometry relative="1" as="geometry" />
        </mxCell>
        <mxCell id="OrEuCBoS2tfW3R4WaEpJ-26" value="FTP" style="rounded=1;whiteSpace=wrap;html=1;" parent="1" vertex="1">
          <mxGeometry x="530" y="250" width="100" height="50" as="geometry" />
        </mxCell>
        <mxCell id="OrEuCBoS2tfW3R4WaEpJ-37" style="edgeStyle=orthogonalEdgeStyle;rounded=0;orthogonalLoop=1;jettySize=auto;html=1;entryX=0.5;entryY=0;entryDx=0;entryDy=0;startArrow=classic;startFill=1;" parent="1" target="OrEuCBoS2tfW3R4WaEpJ-26" edge="1">
          <mxGeometry relative="1" as="geometry">
            <mxPoint x="580" y="229" as="sourcePoint" />
            <Array as="points">
              <mxPoint x="580" y="229" />
            </Array>
          </mxGeometry>
        </mxCell>
        <mxCell id="OrEuCBoS2tfW3R4WaEpJ-40" style="edgeStyle=orthogonalEdgeStyle;rounded=0;orthogonalLoop=1;jettySize=auto;html=1;exitX=0.5;exitY=1;exitDx=0;exitDy=0;entryX=0.5;entryY=0;entryDx=0;entryDy=0;startArrow=classic;startFill=1;" parent="1" source="OrEuCBoS2tfW3R4WaEpJ-38" target="OrEuCBoS2tfW3R4WaEpJ-5" edge="1">
          <mxGeometry relative="1" as="geometry" />
        </mxCell>
        <mxCell id="OrEuCBoS2tfW3R4WaEpJ-38" value="&lt;div&gt;BaccoMAC&lt;/div&gt;" style="rounded=1;whiteSpace=wrap;html=1;" parent="1" vertex="1">
          <mxGeometry x="210" y="215" width="100" height="50" as="geometry" />
        </mxCell>
        <mxCell id="OrEuCBoS2tfW3R4WaEpJ-41" value="LoRa PHY layer" style="rounded=1;whiteSpace=wrap;html=1;" parent="1" vertex="1">
          <mxGeometry x="380" y="320" width="100" height="50" as="geometry" />
        </mxCell>
        <mxCell id="OrEuCBoS2tfW3R4WaEpJ-43" style="edgeStyle=orthogonalEdgeStyle;rounded=0;orthogonalLoop=1;jettySize=auto;html=1;exitX=0.5;exitY=1;exitDx=0;exitDy=0;entryX=0.5;entryY=0;entryDx=0;entryDy=0;startArrow=classic;startFill=1;" parent="1" source="OrEuCBoS2tfW3R4WaEpJ-44" target="OrEuCBoS2tfW3R4WaEpJ-41" edge="1">
          <mxGeometry relative="1" as="geometry" />
        </mxCell>
        <mxCell id="OrEuCBoS2tfW3R4WaEpJ-44" value="Bacco MAC" style="rounded=1;whiteSpace=wrap;html=1;" parent="1" vertex="1">
          <mxGeometry x="380" y="250" width="100" height="50" as="geometry" />
        </mxCell>
        <mxCell id="OrEuCBoS2tfW3R4WaEpJ-49" style="edgeStyle=orthogonalEdgeStyle;rounded=0;orthogonalLoop=1;jettySize=auto;html=1;exitX=0.421;exitY=0.005;exitDx=0;exitDy=0;entryX=0.141;entryY=0.986;entryDx=0;entryDy=0;entryPerimeter=0;startArrow=classic;startFill=1;exitPerimeter=0;" parent="1" source="OrEuCBoS2tfW3R4WaEpJ-44" target="OrEuCBoS2tfW3R4WaEpJ-17" edge="1">
          <mxGeometry relative="1" as="geometry">
            <Array as="points">
              <mxPoint x="422" y="240" />
              <mxPoint x="422" y="240" />
            </Array>
          </mxGeometry>
        </mxCell>
        <mxCell id="OrEuCBoS2tfW3R4WaEpJ-72" value="&lt;div&gt;Web server&lt;/div&gt;" style="rounded=1;whiteSpace=wrap;html=1;fontStyle=1;labelPosition=center;verticalLabelPosition=top;align=center;verticalAlign=bottom;" parent="1" vertex="1">
          <mxGeometry x="710" y="170" width="120" height="210" as="geometry" />
        </mxCell>
        <mxCell id="72u7Qf7eX1bY0a42qOp4-1" value="&lt;div&gt;LoRa&lt;/div&gt;" style="edgeStyle=orthogonalEdgeStyle;rounded=0;orthogonalLoop=1;jettySize=auto;html=1;exitX=1;exitY=0.5;exitDx=0;exitDy=0;entryX=0;entryY=0.5;entryDx=0;entryDy=0;endArrow=classic;endFill=1;startArrow=classic;startFill=1;" edge="1" parent="1" source="OrEuCBoS2tfW3R4WaEpJ-89" target="OrEuCBoS2tfW3R4WaEpJ-2">
          <mxGeometry relative="1" as="geometry" />
        </mxCell>
        <mxCell id="OrEuCBoS2tfW3R4WaEpJ-89" value="&lt;div&gt;Sender&lt;/div&gt;" style="rounded=1;whiteSpace=wrap;html=1;labelPosition=center;verticalLabelPosition=top;align=center;verticalAlign=bottom;horizontal=1;fontStyle=1;labelBorderColor=none;labelBackgroundColor=none;" parent="1" vertex="1">
          <mxGeometry x="30" y="205" width="120" height="140" as="geometry" />
        </mxCell>
        <mxCell id="OrEuCBoS2tfW3R4WaEpJ-90" value="LoRa PHY layer" style="rounded=1;whiteSpace=wrap;html=1;" parent="1" vertex="1">
          <mxGeometry x="40" y="285" width="100" height="50" as="geometry" />
        </mxCell>
        <mxCell id="OrEuCBoS2tfW3R4WaEpJ-91" style="edgeStyle=orthogonalEdgeStyle;rounded=0;orthogonalLoop=1;jettySize=auto;html=1;exitX=0.5;exitY=1;exitDx=0;exitDy=0;entryX=0.5;entryY=0;entryDx=0;entryDy=0;startArrow=classic;startFill=1;" parent="1" source="OrEuCBoS2tfW3R4WaEpJ-92" target="OrEuCBoS2tfW3R4WaEpJ-90" edge="1">
          <mxGeometry relative="1" as="geometry" />
        </mxCell>
        <mxCell id="OrEuCBoS2tfW3R4WaEpJ-92" value="&lt;div&gt;Bacco MAC&lt;/div&gt;" style="rounded=1;whiteSpace=wrap;html=1;" parent="1" vertex="1">
          <mxGeometry x="40" y="215" width="100" height="50" as="geometry" />
        </mxCell>
        <mxCell id="OrEuCBoS2tfW3R4WaEpJ-101" style="edgeStyle=orthogonalEdgeStyle;rounded=0;orthogonalLoop=1;jettySize=auto;html=1;exitX=0.5;exitY=1;exitDx=0;exitDy=0;entryX=0.5;entryY=0;entryDx=0;entryDy=0;startArrow=classic;startFill=1;" parent="1" source="OrEuCBoS2tfW3R4WaEpJ-95" target="OrEuCBoS2tfW3R4WaEpJ-96" edge="1">
          <mxGeometry relative="1" as="geometry" />
        </mxCell>
        <mxCell id="OrEuCBoS2tfW3R4WaEpJ-95" value="&lt;div&gt;CPU&lt;/div&gt;" style="rounded=1;whiteSpace=wrap;html=1;" parent="1" vertex="1">
          <mxGeometry x="720" y="180" width="100" height="50" as="geometry" />
        </mxCell>
        <mxCell id="MxNxOGcgCHaeU--ms-jA-3" style="edgeStyle=orthogonalEdgeStyle;rounded=0;orthogonalLoop=1;jettySize=auto;html=1;exitX=0.5;exitY=1;exitDx=0;exitDy=0;entryX=0.5;entryY=0;entryDx=0;entryDy=0;startArrow=classic;startFill=1;" parent="1" source="OrEuCBoS2tfW3R4WaEpJ-96" target="MxNxOGcgCHaeU--ms-jA-1" edge="1">
          <mxGeometry relative="1" as="geometry" />
        </mxCell>
        <mxCell id="OrEuCBoS2tfW3R4WaEpJ-96" value="FTP" style="rounded=1;whiteSpace=wrap;html=1;" parent="1" vertex="1">
          <mxGeometry x="720" y="250" width="100" height="50" as="geometry" />
        </mxCell>
        <mxCell id="MxNxOGcgCHaeU--ms-jA-1" value="&lt;div&gt;Ethernet&lt;/div&gt;" style="rounded=1;whiteSpace=wrap;html=1;" parent="1" vertex="1">
          <mxGeometry x="720" y="320" width="100" height="50" as="geometry" />
        </mxCell>
      </root>
    </mxGraphModel>
  </diagram>
</mxfile>
